# xmcd
#
# Track frame offsets: 
#        150
#        22635
#        39800
#        66835
#        90427
#        111912
#        130925
#        149927
#        164337
#        179957
#        197455
#        215425
#
# Disc length: 3305 seconds
#
# Revision: 4
# Processed by: cddbd v1.5.2PL0 Copyright (c) Steve Scherf et al.
# Submitted via: ExactAudioCopy v1.0b3
#
DISCID=a90ce70c
DTITLE=Ella Fitzgerald and Louis Armstrong - Ella And Louis Again
DYEAR=1957
DGENRE=Jazz
TTITLE0=Ella Fitzgerald and Louis Armstrong - Don't Be That Way
TTITLE1=Ella Fitzgerald and Louis Armstrong - They All Laughed
TTITLE2=Ella Fitzgerald and Louis Armstrong - Autumn in New York
TTITLE3=Ella Fitzgerald and Louis Armstrong - Stompin' at the Savoy
TTITLE4=Ella Fitzgerald and Louis Armstrong - I Won't Dance
TTITLE5=Ella Fitzgerald and Louis Armstrong - Gee Baby Ain't I Good to
TTITLE5=You
TTITLE6=Ella Fitzgerald and Louis Armstrong - Let's Call the Whole Thi
TTITLE6=ng Off
TTITLE7=Ella Fitzgerald and Louis Armstrong - I've Got My Love to Keep
TTITLE7=Me Warm
TTITLE8=Ella Fitzgerald and Louis Armstrong - I'm Putting All My Eggs 
TTITLE8=in One Basket
TTITLE9=Ella Fitzgerald and Louis Armstrong - A Fine Romance
TTITLE10=Ella Fitzgerald and Louis Armstrong - Love is Here to Stay
TTITLE11=Ella Fitzgerald and Louis Armstrong - Learnin' the Blues
EXTD=YEAR: 1957
EXTT0=
EXTT1=
EXTT2=
EXTT3=
EXTT4=
EXTT5=
EXTT6=
EXTT7=
EXTT8=
EXTT9=
EXTT10=
EXTT11=
PLAYORDER=
